<svg id="Layer_1" data-name="Layer 1" xmlns="http://www.w3.org/2000/svg" viewBox="0 0 318.29 79.47"><defs><style>.cls-1,.cls-2,.cls-3,.cls-4,.cls-5{fill:none;stroke-miterlimit:10;}.cls-1,.cls-2{stroke:#414042;}.cls-1,.cls-4{stroke-width:3px;}.cls-2,.cls-3{stroke-width:5px;}.cls-3,.cls-4,.cls-5{stroke:#fff;}.cls-5{stroke-width:6px;}</style></defs><title>Logo-name</title><path class="cls-1" d="M322.2,524.89" transform="translate(-144.17 -313.47)"/><path class="cls-2" d="M397.52,509.81" transform="translate(-144.17 -313.47)"/><path class="cls-1" d="M189.31,536" transform="translate(-144.17 -313.47)"/><path class="cls-2" d="M408.79,539" transform="translate(-144.17 -313.47)"/><path class="cls-2" d="M408.87,533.88" transform="translate(-144.17 -313.47)"/><path class="cls-1" d="M274.87,528.71" transform="translate(-144.17 -313.47)"/><path class="cls-1" d="M215.83,517.09" transform="translate(-144.17 -313.47)"/><path class="cls-1" d="M284.5,533.88" transform="translate(-144.17 -313.47)"/><path class="cls-2" d="M418.61,523.73" transform="translate(-144.17 -313.47)"/><path class="cls-1" d="M343.3,511" transform="translate(-144.17 -313.47)"/><path class="cls-1" d="M315.25,539" transform="translate(-144.17 -313.47)"/><path class="cls-1" d="M315.17,533.88" transform="translate(-144.17 -313.47)"/><path class="cls-2" d="M465.94,515.43" transform="translate(-144.17 -313.47)"/><path class="cls-2" d="M439.55,533.88" transform="translate(-144.17 -313.47)"/><path class="cls-1" d="M265.73,538" transform="translate(-144.17 -313.47)"/><path class="cls-1" d="M303.18,538" transform="translate(-144.17 -313.47)"/><path class="cls-3" d="M234.75,338.95" transform="translate(-144.17 -313.47)"/><path class="cls-3" d="M254,348.64" transform="translate(-144.17 -313.47)"/><path class="cls-3" d="M261.52,372.33" transform="translate(-144.17 -313.47)"/><path class="cls-3" d="M261.52,346.21" transform="translate(-144.17 -313.47)"/><polyline class="cls-4" points="119.88 42.16 86.58 5.17 85.65 78.01"/><path class="cls-3" d="M257.58,372.39" transform="translate(-144.17 -313.47)"/><path class="cls-3" d="M250.62,321.33" transform="translate(-144.17 -313.47)"/><path class="cls-3" d="M266.67,328.52" transform="translate(-144.17 -313.47)"/><path class="cls-3" d="M246.4,360.84" transform="translate(-144.17 -313.47)"/><path class="cls-3" d="M241.59,338.95" transform="translate(-144.17 -313.47)"/><path class="cls-3" d="M267,330.48" transform="translate(-144.17 -313.47)"/><path class="cls-3" d="M322.17,321.9" transform="translate(-144.17 -313.47)"/><path class="cls-3" d="M279.87,323.19" transform="translate(-144.17 -313.47)"/><path class="cls-3" d="M263.55,329.74" transform="translate(-144.17 -313.47)"/><path class="cls-3" d="M282.54,362.84" transform="translate(-144.17 -313.47)"/><path class="cls-3" d="M288.2,341.15" transform="translate(-144.17 -313.47)"/><path class="cls-3" d="M272.65,340.21" transform="translate(-144.17 -313.47)"/><path class="cls-3" d="M260.55,328.94" transform="translate(-144.17 -313.47)"/><path class="cls-3" d="M232.16,340.55" transform="translate(-144.17 -313.47)"/><path class="cls-3" d="M232.47,342.51" transform="translate(-144.17 -313.47)"/><path class="cls-3" d="M303.84,323.19" transform="translate(-144.17 -313.47)"/><path class="cls-3" d="M248,374.87" transform="translate(-144.17 -313.47)"/><path class="cls-3" d="M312.5,336.39" transform="translate(-144.17 -313.47)"/><line class="cls-4" x1="123.54" y1="42.16" x2="153.52" y2="5.17"/><path class="cls-3" d="M253.69,353.19" transform="translate(-144.17 -313.47)"/><path class="cls-3" d="M238.15,352.24" transform="translate(-144.17 -313.47)"/><path class="cls-3" d="M259.9,351" transform="translate(-144.17 -313.47)"/><path class="cls-3" d="M252.29,354.28" transform="translate(-144.17 -313.47)"/><path class="cls-3" d="M248.21,356.32" transform="translate(-144.17 -313.47)"/><line class="cls-4" x1="155.3" y1="5.82" x2="126.87" y2="78.88"/><line class="cls-4" x1="186.75" y1="78.88" x2="155.34" y2="5.43"/><line class="cls-4" x1="196.95" y1="47.37" x2="153.72" y2="47.37"/><path class="cls-3" d="M315.66,333.37" transform="translate(-144.17 -313.47)"/><path class="cls-4" d="M339.56,317.06c11.46,0,20.74,9.8,20.74,21.89s-9.29,21.89-20.74,21.89" transform="translate(-144.17 -313.47)"/><line class="cls-4" x1="195.39" y1="3.59" x2="181.34" y2="3.59"/><path class="cls-3" d="M263.12,333.84" transform="translate(-144.17 -313.47)"/><path class="cls-3" d="M263.15,351" transform="translate(-144.17 -313.47)"/><path class="cls-3" d="M265.1,335.06" transform="translate(-144.17 -313.47)"/><path class="cls-4" d="M202,322.31" transform="translate(-144.17 -313.47)"/><path class="cls-4" d="M197.86,317.66" transform="translate(-144.17 -313.47)"/><path class="cls-4" d="M194.71,364.54" transform="translate(-144.17 -313.47)"/><path class="cls-4" d="M188,338.89" transform="translate(-144.17 -313.47)"/><path class="cls-4" d="M159.08,351.37" transform="translate(-144.17 -313.47)"/><path class="cls-5" d="M151.14,347.75" transform="translate(-144.17 -313.47)"/><path class="cls-4" d="M187.69,362" transform="translate(-144.17 -313.47)"/><path class="cls-1" d="M178.75,390" transform="translate(-144.17 -313.47)"/><path class="cls-4" d="M178.75,359.11" transform="translate(-144.17 -313.47)"/><path class="cls-1" d="M183.41,390.06" transform="translate(-144.17 -313.47)"/><path class="cls-4" d="M191.65,329.69" transform="translate(-144.17 -313.47)"/><path class="cls-4" d="M172.67,338.19" transform="translate(-144.17 -313.47)"/><path class="cls-4" d="M196.64,376.41" transform="translate(-144.17 -313.47)"/><path class="cls-4" d="M172.3,340.5" transform="translate(-144.17 -313.47)"/><path class="cls-4" d="M176.18,344.6" transform="translate(-144.17 -313.47)"/><path class="cls-4" d="M159.08,333" transform="translate(-144.17 -313.47)"/><path class="cls-4" d="M176.36,339.64" transform="translate(-144.17 -313.47)"/><path class="cls-5" d="M153.91,378.77" transform="translate(-144.17 -313.47)"/><path class="cls-4" d="M165.59,352" transform="translate(-144.17 -313.47)"/><path class="cls-4" d="M179.91,338.69" transform="translate(-144.17 -313.47)"/><path class="cls-3" d="M191.12,328.36" transform="translate(-144.17 -313.47)"/><polyline class="cls-4" points="53.97 10.32 2.91 40.12 52.17 70.6"/><path class="cls-4" d="M371,322.9" transform="translate(-144.17 -313.47)"/><polyline class="cls-4" points="261.89 14.54 315.09 38.35 262.04 71.18"/><line class="cls-4" x1="219.09" y1="78.76" x2="250.41" y2="0.56"/><polyline class="cls-4" points="119.37 41.59 121.82 44.34 124 41.59"/><polyline class="cls-4" points="155.68 6.23 154.6 3.91 152.82 6.03"/></svg>